<svg width="300" height="360" version="1.1" xmlns="http://www.w3.org/2000/svg" desc="Created with imagetracer.js version 1.2.6" ><path fill="rgb(53,46,93)" stroke="rgb(53,46,93)" stroke-width="1" opacity="0.8117647058823529" d="M 93.5 23 Q 96.9 22.1 95 27.5 L 96 28.5 L 100 61.5 L 101 62.5 L 110 131.5 L 114 140 Q 117.3 143 125.5 142 L 126.5 141 L 203 131 L 203 133.5 L 199.5 138 L 195.5 140 L 189.5 140 L 167.5 144 L 160.5 144 L 159.5 145 L 138.5 147 L 123.5 150 L 111.5 150 L 104 144.5 L 101 133.5 L 97 99.5 L 95 92.5 L 91 58.5 L 88 44.5 L 88 27.5 L 93.5 23 Z " /><path fill="rgb(201,200,238)" stroke="rgb(201,200,238)" stroke-width="1" opacity="0.9882352941176471" d="M 179.5 0 Q 192.5 -2.5 196 4.5 L 198 8.5 L 200 29.5 L 205 58.5 L 205 65.5 L 206 66.5 L 206 72.5 L 207 73.5 L 211 107.5 L 212 108.5 L 213 122.5 L 207.5 130 L 147.5 138 L 146.5 139 L 140.5 139 L 139.5 140 L 133.5 140 L 132.5 141 L 126.5 141 L 125.5 142 L 118.5 142 L 114 140 L 110 131.5 L 101 62.5 L 100 61.5 L 96 28.5 L 95 27.5 L 95 18.5 L 100.5 12 L 107.5 10 L 129.5 8 L 136.5 6 L 143.5 6 L 144.5 5 L 164.5 3 L 179.5 0 Z " /><path fill="rgb(0,0,0)" stroke="rgb(0,0,0)" stroke-width="1" opacity="0" d="M 0 0 L 179 0.5 L 150.5 4 L 143.5 6 L 136.5 6 L 129.5 8 L 121.5 8 L 114.5 10 L 107.5 10 L 100.5 12 L 96 16.5 L 95 23 L 88 27.5 L 88 44.5 L 91 58.5 L 95 92.5 L 97 99.5 L 101 133.5 L 103 142.5 L 107.5 148 Q 112.5 152 123.5 150 L 138.5 147 L 145.5 147 L 160.5 144 L 167.5 144 L 168.5 143 L 195.5 140 L 201 136.5 L 203 131 Q 209.4 130.8 212 125.5 L 213 116.5 L 212 115.5 L 212 108.5 L 211 107.5 L 211 101.5 L 210 100.5 L 206 66.5 L 205 65.5 L 205 58.5 L 200 29.5 L 198 8.5 L 192.5 1 L 191 0.5 L 300 0 L 300 360 L 0 360 L 0 0 Z " /></svg>